<svg width="50"
     height="50"
     viewBox="0 0 60 70">
<path fill="#F9F9F7" opacity="0.000000" stroke="none"
	d="
M1.000000,29.000000
	C1.000000,20.166672 1.096067,11.831475 0.934251,3.501288
	C0.892405,1.347067 1.351002,0.918706 3.500503,0.936042
	C18.499521,1.057009 33.500435,1.057001 48.499454,0.936048
	C50.648865,0.918715 51.073261,1.352185 51.062820,3.500275
	C50.959137,24.833097 50.959141,46.166821 51.062805,67.499641
	C51.073242,69.647545 50.649117,70.081299 48.499538,70.063957
	C33.500523,69.942978 18.499605,69.943008 3.500587,70.063950
	C1.351282,70.081284 0.913188,69.650032 0.935459,67.499405
	C1.066620,54.834076 1.000000,42.166691 1.000000,29.000000
z"/>
<path fill="#F9F9F7" opacity="1.000000" stroke="none"
	d="
M15.517262,62.440659
	C14.229605,60.473305 13.118796,58.818718 12.165604,57.077831
	C9.330456,51.899796 12.789167,45.345535 9.658555,40.805920
	C6.098086,35.642975 5.734621,30.435017 5.782082,24.760143
	C5.834999,18.432827 5.952268,12.099174 5.730032,5.779235
	C5.613091,2.453676 7.177035,1.952104 9.949247,1.940485
	C12.743846,1.928771 14.222333,2.470714 14.145481,5.778875
	C13.945583,14.383710 14.078281,22.996271 14.078281,33.121075
	C19.409840,27.888514 24.647955,25.530848 30.674059,24.925339
	C32.726372,24.719120 31.863512,22.843878 31.883036,21.708410
	C31.974632,16.381344 32.089390,11.044836 31.864355,5.725726
	C31.721451,2.347905 33.430550,1.976982 36.147259,1.941021
	C39.049156,1.902608 40.406799,2.700329 40.268360,5.903098
	C40.045639,11.055586 40.364746,16.231295 40.148655,21.384348
	C40.024471,24.345757 40.416538,26.455914 43.767345,27.244801
	C45.975376,27.764645 46.781925,29.643284 46.840069,31.846992
	C46.920395,34.891445 46.493778,37.042664 42.825699,34.537991
	C40.964138,33.266865 39.686779,33.346375 38.900902,35.943920
	C37.847115,39.426987 35.044094,41.555225 30.787827,44.001621
	C35.374706,44.001621 38.759922,44.180538 42.117542,43.952732
	C45.678196,43.711151 46.876877,45.240513 46.743324,48.626961
	C46.579407,52.783485 46.424557,56.975845 46.785145,61.107388
	C47.130386,65.063087 45.441090,66.985786 41.846508,67.749275
	C32.443790,69.746429 23.331211,70.236771 15.517262,62.440659
z"/>
<path fill="#060507" opacity="1.000000" stroke="none"
	d="
M19.129406,47.835472
	C18.837515,45.323368 19.995275,44.947483 21.781017,44.965202
	C24.045643,44.987675 26.312721,44.762676 28.897814,44.627739
	C27.731966,49.917191 30.000496,51.937836 35.168484,51.007416
	C37.572861,50.574539 38.657978,51.695984 38.125618,54.026939
	C37.533894,56.617844 40.045094,60.200871 35.815590,61.660736
	C31.519350,63.143639 25.069431,61.179680 22.323790,57.527008
	C20.271473,54.796696 19.376850,51.637875 19.129406,47.835472
z"/>
<path fill="#060507" opacity="1.000000" stroke="none"
	d="
M27.647564,37.009586
	C25.682959,38.220600 23.964705,38.124660 21.800468,37.818489
	C23.993036,34.028614 27.119968,32.639149 31.270485,31.972494
	C30.874361,34.391300 29.616993,35.743435 27.647564,37.009586
z"/>
</svg>
